<?xml version="1.0" encoding="UTF-8"?>
<svg id="Layer_1" xmlns="http://www.w3.org/2000/svg" version="1.1" viewBox="0 0 845.32 778.15">
  <!-- Generator: Adobe Illustrator 29.5.1, SVG Export Plug-In . SVG Version: 2.1.0 Build 141)  -->
  <defs>
    <style>
      .st0 {
        fill: #f18557;
      }

      .st1 {
        fill: #664c41;
      }

      .st2 {
        stroke-miterlimit: 10;
        stroke-width: 12px;
      }

      .st2, .st3, .st4 {
        fill: none;
        stroke: #fff4e5;
      }

      .st3 {
        stroke-miterlimit: 10;
        stroke-width: 12px;
      }

      .st4 {
        stroke-miterlimit: 10;
        stroke-width: 12px;
      }

      .st5 {
        fill: #70859f;
      }
    </style>
  </defs>
  <g id="color">
    <path class="st1" d="M603.18,495.79c-8.77-3.61-16.07-10.11-20.57-18.46-53.57-99.37-132.24-109.28-167.03-108.28-34.82-.99-113.55,8.91-167.17,108.28-4.5,8.35-11.81,14.85-20.59,18.46-44.6,18.33-177.7,84.13-115.8,196.22,65.16,117.99,258.97,52.56,303.55,35.58,44.55,16.98,238.2,82.41,303.31-35.58,61.85-112.1-71.15-177.9-115.71-196.22h.01Z"/>
    <ellipse class="st1" cx="97.02" cy="302.14" rx="77.15" ry="130.69" transform="translate(-46.86 19.3) rotate(-9.16)"/>
    <ellipse class="st1" cx="314.33" cy="156.83" rx="75.11" ry="139.67"/>
    <ellipse class="st1" cx="748.2" cy="308.71" rx="130.69" ry="77.24" transform="translate(324.08 998.08) rotate(-80.82)"/>
    <ellipse class="st1" cx="530.64" cy="163.41" rx="75.2" ry="139.67"/>
    <ellipse class="st0" cx="125.94" cy="347.05" rx="46.89" ry="71.83"/>
    <ellipse class="st0" cx="723.29" cy="357.02" rx="46.89" ry="71.83"/>
    <ellipse class="st0" cx="322.03" cy="226.67" rx="49.45" ry="69.83"/>
    <ellipse class="st0" cx="520.32" cy="226.67" rx="49.45" ry="69.83"/>
    <g id="Layer_4">
      <path class="st0" d="M530.64,540.59c-66.32-26.41-105.29,52.82-113.54,71.81-8.29-18.99-47.45-98.23-114.11-71.81-75.09,29.75-60.51,152.41,112.58,186.41v.59c.51-.1,1.02-.2,1.53-.3.51.1,1.02.2,1.54.3v-.6c172.21-34.01,186.71-156.66,112-186.41h0Z"/>
      <path class="st5" d="M472.55,627.7c-33.24-13.24-52.78,26.48-56.91,36-4.15-9.52-23.79-49.24-57.2-36-37.64,14.91-30.33,76.4,56.43,93.44v.3c.26-.05.51-.1.77-.15.26.05.51.1.77.15v-.3c86.32-17.05,93.59-78.53,56.14-93.44h0Z"/>
      <ellipse class="st5" cx="105.02" cy="333.79" rx="24.58" ry="37.29"/>
      <ellipse class="st5" cx="701.95" cy="342.4" rx="37.29" ry="24.58" transform="translate(291.75 1007.02) rotate(-84.32)"/>
      <ellipse class="st5" cx="297.46" cy="206.13" rx="33.18" ry="21.67" transform="translate(30.08 450.01) rotate(-77.09)"/>
      <ellipse class="st5" cx="495.53" cy="206.13" rx="33.18" ry="21.67" transform="translate(183.9 643.07) rotate(-77.09)"/>
      <ellipse class="st5" cx="49.96" cy="245.64" rx="39.16" ry="19.14" transform="translate(-200.03 227.13) rotate(-74.27)"/>
      <ellipse class="st5" cx="41.65" cy="303.08" rx="8.31" ry="10.81"/>
      <ellipse class="st5" cx="292.06" cy="73.28" rx="39.16" ry="19.14" transform="translate(77.12 284.16) rotate(-58.54)"/>
      <ellipse class="st5" cx="268.48" cy="126.31" rx="10.81" ry="8.31" transform="translate(74.11 350.49) rotate(-74.27)"/>
      <ellipse class="st5" cx="787.71" cy="249.61" rx="19.14" ry="39.16" transform="translate(-28.65 121.74) rotate(-8.68)"/>
      <ellipse class="st5" cx="797.15" cy="311.45" rx="8.31" ry="10.81" transform="translate(-25.28 74.68) rotate(-5.28)"/>
      <ellipse class="st5" cx="546.05" cy="75.97" rx="19.14" ry="39.16" transform="translate(29.82 269.49) rotate(-28.47)"/>
      <ellipse class="st5" cx="575.87" cy="130.95" rx="8.31" ry="10.81" transform="translate(-1.23 256.35) rotate(-25.07)"/>
      <ellipse class="st5" cx="379.59" cy="438.36" rx="57.86" ry="35.85" transform="translate(-175.85 271.83) rotate(-32.42)"/>
      <ellipse class="st5" cx="297.44" cy="494.69" rx="22.61" ry="15.3" transform="translate(-230.81 262) rotate(-35.21)"/>
      <path class="st5" d="M226.63,539.2c-16.71-13.73-43.7-8.49-60.29,11.7-11.16,13.58-14.76,30.47-10.84,44.25-1.83,1.51-3.43,3.37-4.69,5.55-5.66,9.8-2.3,22.32,7.5,27.98s22.32,2.3,27.98-7.5c.24-.41.46-.83.66-1.26,13.9.63,29.1-6.17,39.9-19.31,16.59-20.19,16.5-47.69-.21-61.42h-.01,0Z"/>
      <path class="st5" d="M621.53,550.29c1.76-9-6.03-20.54-19.09-27.29-14.72-7.6-30.54-6.23-35.33,3.05-4.8,9.29,3.24,22.98,17.96,30.58,9.91,5.12,20.31,6.16,27.52,3.47,1.06,2.85,3.79,4.89,7.01,4.89,4.13,0,7.48-3.35,7.48-7.48,0-3.46-2.36-6.37-5.55-7.22h0Z"/>
    </g>
  </g>
  <g id="outline">
    <path class="st2" d="M603.18,495.79c-8.77-3.61-16.07-10.11-20.57-18.46-53.57-99.37-132.24-109.28-167.03-108.28-34.82-.99-113.55,8.91-167.17,108.28-4.5,8.35-11.81,14.85-20.59,18.46-44.6,18.33-177.7,84.13-115.8,196.22,65.16,117.99,258.97,52.56,303.55,35.58,44.55,16.98,238.2,82.41,303.31-35.58,61.85-112.1-71.15-177.9-115.71-196.22h.01Z"/>
    <ellipse class="st4" cx="97.02" cy="302.14" rx="77.15" ry="130.69" transform="translate(-46.86 19.3) rotate(-9.16)"/>
    <ellipse class="st2" cx="314.33" cy="156.83" rx="75.11" ry="139.67"/>
    <ellipse class="st3" cx="748.2" cy="308.71" rx="130.69" ry="77.24" transform="translate(324.08 998.08) rotate(-80.82)"/>
    <ellipse class="st2" cx="530.64" cy="163.41" rx="75.2" ry="139.67"/>
  </g>
</svg>